<svg t="1715088445470" class="icon" viewBox="0 0 1024 1024" version="1.1" xmlns="http://www.w3.org/2000/svg" p-id="15515" width="16" height="16"><path d="M703.488 335.872c-10.24-10.24-27.648-10.24-37.888 0L520.192 481.28 373.76 335.872c-10.24-10.24-27.648-10.24-37.888 0s-10.24 27.648 0 37.888L481.28 520.192 335.872 665.6c-10.24 10.24-10.24 27.648 0 37.888s27.648 10.24 37.888 0l145.408-145.408L665.6 703.488c10.24 10.24 27.648 10.24 37.888 0s10.24-27.648 0-37.888L558.08 520.192l145.408-145.408c11.264-11.264 11.264-28.672 0-38.912z" fill="#e6e6e6" p-id="15516"></path><path d="M517.12 54.272C262.144 54.272 54.272 262.144 54.272 517.12s207.872 462.848 462.848 462.848 462.848-207.872 462.848-462.848S772.096 54.272 517.12 54.272z m0 872.448c-226.304 0-410.624-184.32-410.624-410.624s184.32-410.624 410.624-410.624 410.624 184.32 410.624 410.624c-1.024 227.328-184.32 410.624-410.624 410.624z" fill="#e6e6e6" p-id="15517"></path></svg>