<svg t="1715243768793" class="icon" viewBox="0 0 1024 1024" version="1.1" xmlns="http://www.w3.org/2000/svg" p-id="6917" width="16" height="16"><path d="M160 256v480h704V256H160z m0-64h704a64 64 0 0 1 64 64v480a64 64 0 0 1-64 64H160a64 64 0 0 1-64-64V256a64 64 0 0 1 64-64z" fill="#ffffff" p-id="6918"></path><path d="M764.32 256H259.68L512 488.896 764.32 256zM156.128 247.52A32 32 0 0 1 177.856 192h668.288a32 32 0 0 1 21.728 55.52l-312.448 288.416a64 64 0 0 1-86.848 0L156.16 247.52z" fill="#ffffff" p-id="6919"></path></svg>