<svg t="1715505208417" class="icon" viewBox="0 0 1024 1024" version="1.1" xmlns="http://www.w3.org/2000/svg" p-id="4621" width="16" height="16"><path d="M512 565.12a45.44 45.44 0 0 1-32.64-13.44l-448-451.84a45.44 45.44 0 0 1 64-64L512 454.4 931.84 35.2a46.08 46.08 0 0 1 64 0 45.44 45.44 0 0 1 0 64L545.28 551.68a45.44 45.44 0 0 1-33.28 13.44z" fill="#ffffff" p-id="4622"></path><path d="M512 1016.96a45.44 45.44 0 0 1-32.64-13.44l-448-451.84a45.44 45.44 0 0 1 64-64L512 906.24l419.2-419.2a46.08 46.08 0 0 1 64 0 45.44 45.44 0 0 1 0 64l-449.92 452.48a45.44 45.44 0 0 1-33.28 13.44z" fill="#ffffff" p-id="4623"></path></svg>