<svg t="1715311099459" class="icon" viewBox="0 0 1058 1024" version="1.1" xmlns="http://www.w3.org/2000/svg" p-id="4313" width="16" height="16"><path d="M529.163442 1024l-15.439957-10.2014C492.769258 1000.288638 0.069204 672.465267 0.069204 339.403339A332.786214 332.786214 0 0 1 324.308299 0a319.276252 319.276252 0 0 1 204.855143 75.545504A318.173398 318.173398 0 0 1 733.191444 0a332.510501 332.510501 0 0 1 325.066236 339.954766 575.965536 575.965536 0 0 1-122.692515 311.28056A1500.984383 1500.984383 0 0 1 747.804261 854.711901a2063.71567 2063.71567 0 0 1-203.200862 159.638126zM324.584013 55.142703A277.643511 277.643511 0 0 0 55.211907 338.851912c0 273.232095 390.961766 560.801292 473.675822 618.425417a2059.579968 2059.579968 0 0 0 182.522347-144.749596 1448.323102 1448.323102 0 0 0 181.143781-195.480883 518.617124 518.617124 0 0 0 110.285406-279.297792A277.367798 277.367798 0 0 0 732.640017 55.142703a261.927841 261.927841 0 0 0-183.900915 77.475498l-19.57566 19.851374-19.57566-19.851374A262.754981 262.754981 0 0 0 324.584013 55.142703z" fill="#ffffff" p-id="4314"></path></svg>