<svg t="1715088515404" class="icon" viewBox="0 0 1024 1024" version="1.1" xmlns="http://www.w3.org/2000/svg" p-id="16619" width="16" height="16"><path d="M815.104 1024H208.896c-72.704 0-131.584-58.88-131.584-131.584V131.584C77.824 58.88 136.192 0 208.896 0h605.696c72.704 0 131.584 58.88 131.584 131.584v761.344c0 72.192-58.368 131.072-131.072 131.072z m-15.872-963.584H224.768c-48.128 0-87.04 38.912-87.04 87.04v729.6c0 48.128 38.912 87.04 87.04 87.04h574.464c48.128 0 87.04-38.912 87.04-87.04V147.456c-0.512-48.128-38.912-87.04-87.04-87.04zM263.68 294.4h313.856c15.36 0 29.184 11.264 31.232 26.624 2.048 18.432-12.288 33.792-30.208 33.792H264.704c-15.36 0-29.184-11.264-31.232-26.624-2.048-18.432 12.288-33.792 30.208-33.792z m0 186.368h313.856c15.36 0 29.184 11.264 31.232 26.624 2.048 18.432-12.288 33.792-30.208 33.792H264.704c-15.36 0-29.184-11.264-31.232-26.624-2.048-17.92 12.288-33.792 30.208-33.792z m0 186.368h313.856c15.36 0 29.184 11.264 31.232 26.624 2.048 18.432-12.288 33.792-30.208 33.792H264.704c-15.36 0-29.184-11.264-31.232-26.624-2.048-17.92 12.288-33.792 30.208-33.792z m414.208-370.688c23.04-5.12 43.008 14.848 37.888 37.888-2.56 11.776-11.776 20.992-23.552 23.552-23.04 5.12-43.008-14.848-37.888-37.888 2.56-11.776 11.776-20.992 23.552-23.552z m0 183.808c23.04-5.12 43.008 14.848 37.888 37.888-2.56 11.776-11.776 20.992-23.552 23.552-23.04 5.12-43.008-14.848-37.888-37.888 2.56-11.264 11.776-20.992 23.552-23.552z m0 185.856c23.04-5.12 43.008 14.848 37.888 37.888-2.56 11.776-11.776 20.992-23.552 23.552-23.04 5.12-43.008-14.848-37.888-37.888 2.56-11.776 11.776-20.992 23.552-23.552z" p-id="16620" fill="#ffffff"></path></svg>